<?xml version="1.0" encoding="UTF-8"?>
<svg width="870px" height="587px" viewBox="0 0 870 587" version="1.1" xmlns="http://www.w3.org/2000/svg" xmlns:xlink="http://www.w3.org/1999/xlink">
    <!-- Generator: Sketch 58 (84663) - https://sketch.com -->
    <title>undraw_fast_car_p4cu</title>
    <desc>Created with Sketch.</desc>
    <g id="Landing" stroke="none" stroke-width="1" fill="none" fill-rule="evenodd">
        <g id="Desktop-HD-Copy-11" transform="translate(-540.000000, -149.000000)">
            <g id="undraw_fast_car_p4cu" transform="translate(971.240583, 444.572953) rotate(-1.000000) translate(-971.240583, -444.572953) translate(536.240583, 153.072953)">
                <path d="M549.697563,164.183686 L442.10634,164.183686 L442.10634,141.312029 C442.10634,138.290621 439.614324,135.841286 436.540265,135.841286 L404.946084,135.841286 L404.946084,111.478358 C404.946084,109.576327 403.377314,108.034427 401.442139,108.034427 L360.744407,108.034427 C358.809232,108.034427 357.240463,109.576327 357.240463,111.478358 L357.240463,135.849526 L320.096971,135.849526 C317.022913,135.849526 314.530896,138.29886 314.530896,141.320268 L314.530896,164.191925 L211.935729,164.191925 C211.314008,164.196451 210.812455,164.69311 210.812455,165.304199 L210.812455,468.922152 C210.812455,469.533241 211.314008,470.0299 211.935729,470.034427 L280.120147,470.034427 C280.745144,470.034427 281.251804,469.536444 281.251804,468.922152 L281.251804,428.072845 C281.256369,427.460421 281.760364,426.965058 282.383461,426.960571 L311.186222,426.960571 C311.809318,426.965058 312.313314,427.460421 312.317879,428.072845 L312.317879,468.922152 C312.317862,469.533241 312.819432,470.0299 313.441153,470.034427 L448.175374,470.034427 C448.79847,470.02994 449.302466,469.534576 449.307031,468.922152 L449.307031,428.072845 C449.307014,427.461756 449.808584,426.965097 450.430305,426.960571 L479.233066,426.960571 C479.858063,426.960571 480.364723,427.458553 480.364723,428.072845 L480.364723,468.922152 C480.369288,469.534576 480.873284,470.02994 481.49638,470.034427 L549.680798,470.034427 C550.303894,470.02994 550.80789,469.534576 550.812455,468.922152 L550.812455,165.29596 C550.80807,164.689849 550.314103,164.197041 549.697563,164.183686 Z M269.046676,412.772893 C269.046676,413.382635 268.543769,413.876959 267.923401,413.876959 L225.809003,413.876959 C225.509642,413.879124 225.221775,413.763777 225.009304,413.556491 C224.796832,413.349206 224.677346,413.067135 224.677346,412.772893 L224.677346,398.675845 C224.677346,398.380852 224.796574,398.09794 225.008801,397.889348 C225.221028,397.680756 225.508869,397.563571 225.809003,397.563571 L267.948549,397.563571 C268.57027,397.568097 269.071824,398.064756 269.071824,398.675845 L269.046676,412.772893 Z M269.046676,376.240859 C269.04891,376.535092 268.931552,376.818029 268.720655,377.026861 C268.509757,377.235693 268.22277,377.353164 267.923401,377.353164 L225.809003,377.353164 C225.508184,377.355348 225.219031,377.238873 225.006314,377.029799 C224.793597,376.820726 224.675093,376.536526 224.677315,376.240859 L224.677315,362.110854 C224.675093,361.815187 224.793597,361.530987 225.006314,361.321913 C225.219031,361.112839 225.508184,360.996365 225.809003,360.998549 L267.948549,360.998549 C268.247918,360.998549 268.534905,361.11602 268.745803,361.324852 C268.9567,361.533684 269.074058,361.816621 269.071855,362.110854 L269.046676,376.240859 Z M269.046676,339.717063 C269.046693,340.328152 268.545122,340.824811 267.923401,340.829338 L225.809003,340.829338 C225.508869,340.829338 225.221028,340.712152 225.008801,340.50356 C224.796574,340.294968 224.677346,340.012057 224.677346,339.717063 L224.677346,325.57882 C224.677346,324.964528 225.184006,324.466545 225.809003,324.466545 L267.948549,324.466545 C268.57027,324.471072 269.071824,324.967731 269.071824,325.57882 L269.046676,339.717063 Z M269.046676,303.185029 C269.04891,303.479262 268.931552,303.762199 268.720655,303.971031 C268.509757,304.179863 268.22277,304.297334 267.923401,304.297334 L225.809003,304.297334 C225.508184,304.299518 225.219031,304.183044 225.006314,303.97397 C224.793597,303.764896 224.675093,303.480696 224.677315,303.185029 L224.677315,289.09622 C224.675093,288.800553 224.793597,288.516353 225.006314,288.307279 C225.219031,288.098205 225.508184,287.98173 225.809003,287.983914 L267.948549,287.983914 C268.247918,287.983914 268.534905,288.101385 268.745803,288.310217 C268.9567,288.519049 269.074058,288.801986 269.071855,289.09622 L269.046676,303.185029 Z M269.046676,266.661233 C269.046693,267.272322 268.545122,267.768981 267.923401,267.773508 L225.809003,267.773508 C225.508869,267.773508 225.221028,267.656322 225.008801,267.44773 C224.796574,267.239138 224.677346,266.956227 224.677346,266.661233 L224.677346,252.52299 C224.677346,252.228748 224.796832,251.946677 225.009304,251.739392 C225.221775,251.532106 225.509642,251.416759 225.809003,251.418924 L267.948549,251.418924 C268.568917,251.418924 269.071824,251.913248 269.071824,252.52299 L269.046676,266.661233 Z M269.046676,230.137438 C269.046676,230.74718 268.543769,231.241504 267.923401,231.241504 L225.809003,231.241504 C225.509642,231.243669 225.221775,231.128321 225.009304,230.921036 C224.796832,230.713751 224.677346,230.431679 224.677346,230.137438 L224.677346,215.999194 C224.677346,215.704201 224.796574,215.42129 225.008801,215.212698 C225.221028,215.004106 225.508869,214.88692 225.809003,214.88692 L267.948549,214.88692 C268.57027,214.891447 269.071824,215.388105 269.071824,215.999194 L269.046676,230.137438 Z M269.046676,193.605403 C269.04891,193.899637 268.931552,194.182574 268.720655,194.391406 C268.509757,194.600238 268.22277,194.717709 267.923401,194.717709 L225.809003,194.717709 C225.508184,194.719892 225.219031,194.603418 225.006314,194.394344 C224.793597,194.18527 224.675093,193.90107 224.677315,193.605403 L224.677315,179.516594 C224.675093,179.220927 224.793597,178.936727 225.006314,178.727653 C225.219031,178.518579 225.508184,178.402105 225.809003,178.404289 L267.948549,178.404289 C268.247918,178.404289 268.534905,178.52176 268.745803,178.730592 C268.9567,178.939424 269.074058,179.222361 269.071855,179.516594 L269.046676,193.605403 Z M368.892336,412.764654 C368.892336,413.058896 368.77285,413.340967 368.560379,413.548252 C368.347908,413.755538 368.06004,413.870885 367.76068,413.86872 L325.646281,413.86872 C325.024543,413.86872 324.51923,413.375726 324.514624,412.764654 L324.514624,398.675845 C324.519189,398.063421 325.023185,397.568057 325.646281,397.563571 L367.76068,397.563571 C368.060814,397.563571 368.348655,397.680756 368.560882,397.889348 C368.773109,398.09794 368.892336,398.380852 368.892336,398.675845 L368.892336,412.764654 Z M368.892368,376.23262 C368.89459,376.528286 368.776086,376.812486 368.563368,377.02156 C368.350651,377.230634 368.061499,377.347109 367.76068,377.344925 L325.646281,377.344925 C325.021284,377.344925 324.514624,376.846912 324.514624,376.23262 L324.514624,362.110854 C324.514624,361.496562 325.021284,360.998549 325.646281,360.998549 L367.76068,360.998549 C368.061499,360.996365 368.350651,361.112839 368.563368,361.321913 C368.776086,361.530987 368.89459,361.815187 368.892368,362.110854 L368.892368,376.23262 Z M368.892336,339.708824 C368.892336,340.003818 368.773109,340.286729 368.560882,340.495321 C368.348655,340.703913 368.060814,340.821098 367.76068,340.821098 L325.646281,340.821098 C325.023185,340.816612 324.519189,340.321248 324.514624,339.708824 L324.514624,325.57882 C324.519189,324.966396 325.023185,324.471032 325.646281,324.466545 L367.76068,324.466545 C368.060814,324.466545 368.348655,324.583731 368.560882,324.792323 C368.773109,325.000915 368.892336,325.283826 368.892336,325.57882 L368.892336,339.708824 Z M368.892368,303.17679 C368.89459,303.472457 368.776086,303.756657 368.563368,303.96573 C368.350651,304.174804 368.061499,304.291279 367.76068,304.289095 L325.646281,304.289095 C325.021284,304.289095 324.514624,303.791082 324.514624,303.17679 L324.514624,289.09622 C324.514624,288.481927 325.021284,287.983914 325.646281,287.983914 L367.76068,287.983914 C368.061499,287.98173 368.350651,288.098205 368.563368,288.307279 C368.776086,288.516353 368.89459,288.800553 368.892368,289.09622 L368.892368,303.17679 Z M368.892336,266.652994 C368.892336,266.947988 368.773109,267.230899 368.560882,267.439491 C368.348655,267.648083 368.060814,267.765269 367.76068,267.765269 L325.646281,267.765269 C325.023185,267.760782 324.519189,267.265418 324.514624,266.652994 L324.514624,252.52299 C324.51923,251.911918 325.024543,251.418924 325.646281,251.418924 L367.76068,251.418924 C368.06004,251.416759 368.347908,251.532106 368.560379,251.739392 C368.77285,251.946677 368.892336,252.228748 368.892336,252.52299 L368.892336,266.652994 Z M368.892336,230.129199 C368.892336,230.42344 368.77285,230.705512 368.560379,230.912797 C368.347908,231.120082 368.06004,231.23543 367.76068,231.233265 L325.646281,231.233265 C325.024543,231.233265 324.51923,230.740271 324.514624,230.129199 L324.514624,215.999194 C324.519189,215.38677 325.023185,214.891407 325.646281,214.88692 L367.76068,214.88692 C368.060814,214.88692 368.348655,215.004106 368.560882,215.212698 C368.773109,215.42129 368.892336,215.704201 368.892336,215.999194 L368.892336,230.129199 Z M368.892368,193.597164 C368.89459,193.892831 368.776086,194.177031 368.563368,194.386105 C368.350651,194.595179 368.061499,194.711653 367.76068,194.70947 L325.646281,194.70947 C325.021284,194.70947 324.514624,194.211456 324.514624,193.597164 L324.514624,179.516594 C324.514624,178.902302 325.021284,178.404289 325.646281,178.404289 L367.76068,178.404289 C368.061499,178.402105 368.350651,178.518579 368.563368,178.727653 C368.776086,178.936727 368.89459,179.220927 368.892368,179.516594 L368.892368,193.597164 Z M437.118668,412.756415 C437.118668,413.050656 436.999181,413.332728 436.78671,413.540013 C436.574239,413.747299 436.286371,413.862646 435.987011,413.860481 L393.872612,413.860481 C393.250875,413.860481 392.745561,413.367487 392.740956,412.756415 L392.740956,398.675845 C392.745521,398.063421 393.249516,397.568057 393.872612,397.563571 L435.987011,397.563571 C436.612008,397.563571 437.118668,398.061553 437.118668,398.675845 L437.118668,412.756415 Z M437.118699,376.22438 C437.120921,376.520047 437.002417,376.804247 436.7897,377.013321 C436.576983,377.222395 436.28783,377.33887 435.987011,377.336686 L393.872612,377.336686 C393.247616,377.336686 392.740956,376.838673 392.740956,376.22438 L392.740956,362.110854 C392.740956,361.496562 393.247616,360.998549 393.872612,360.998549 L435.987011,360.998549 C436.28783,360.996365 436.576983,361.112839 436.7897,361.321913 C437.002417,361.530987 437.120921,361.815187 437.118699,362.110854 L437.118699,376.22438 Z M437.118668,339.700585 C437.118668,340.314877 436.612008,340.812859 435.987011,340.812859 L393.872612,340.812859 C393.249516,340.808373 392.745521,340.313009 392.740956,339.700585 L392.740956,325.57882 C392.745521,324.966396 393.249516,324.471032 393.872612,324.466545 L435.987011,324.466545 C436.612008,324.466545 437.118668,324.964528 437.118668,325.57882 L437.118668,339.700585 Z M437.118699,303.168551 C437.120921,303.464217 437.002417,303.748417 436.7897,303.957491 C436.576983,304.166565 436.28783,304.28304 435.987011,304.280856 L393.872612,304.280856 C393.247616,304.280856 392.740956,303.782843 392.740956,303.168551 L392.740956,289.09622 C392.740956,288.481927 393.247616,287.983914 393.872612,287.983914 L435.987011,287.983914 C436.28783,287.98173 436.576983,288.098205 436.7897,288.307279 C437.002417,288.516353 437.120921,288.800553 437.118699,289.09622 L437.118699,303.168551 Z M437.118668,266.644755 C437.118668,267.259047 436.612008,267.757029 435.987011,267.757029 L393.872612,267.757029 C393.249516,267.752543 392.745521,267.257179 392.740956,266.644755 L392.740956,252.52299 C392.745561,251.911918 393.250875,251.418924 393.872612,251.418924 L435.987011,251.418924 C436.286371,251.416759 436.574239,251.532106 436.78671,251.739392 C436.999181,251.946677 437.118668,252.228748 437.118668,252.52299 L437.118668,266.644755 Z M437.118668,230.12096 C437.118668,230.415201 436.999181,230.697273 436.78671,230.904558 C436.574239,231.111843 436.286371,231.227191 435.987011,231.225026 L393.872612,231.225026 C393.250875,231.225026 392.745561,230.732032 392.740956,230.12096 L392.740956,215.999194 C392.745521,215.38677 393.249516,214.891407 393.872612,214.88692 L435.987011,214.88692 C436.612008,214.88692 437.118668,215.384902 437.118668,215.999194 L437.118668,230.12096 Z M437.118699,193.588925 C437.120921,193.884592 437.002417,194.168792 436.7897,194.377866 C436.576983,194.58694 436.28783,194.703414 435.987011,194.701231 L393.872612,194.701231 C393.247616,194.701231 392.740956,194.203217 392.740956,193.588925 L392.740956,179.516594 C392.740956,178.902302 393.247616,178.404289 393.872612,178.404289 L435.987011,178.404289 C436.28783,178.402105 436.576983,178.518579 436.7897,178.727653 C437.002417,178.936727 437.120921,179.220927 437.118699,179.516594 L437.118699,193.588925 Z M536.964328,412.748176 C536.959723,413.359248 536.454409,413.852242 535.832672,413.852242 L493.718273,413.852242 C493.418913,413.854407 493.131045,413.739059 492.918574,413.531774 C492.706103,413.324489 492.586616,413.042417 492.586616,412.748176 L492.586616,398.675845 C492.586616,398.061553 493.093276,397.563571 493.718273,397.563571 L535.832672,397.563571 C536.455768,397.568057 536.959763,398.063421 536.964328,398.675845 L536.964328,412.748176 Z M536.964328,376.216141 C536.964328,376.830434 536.457668,377.328447 535.832672,377.328447 L493.718273,377.328447 C493.417454,377.330631 493.128302,377.214156 492.915584,377.005082 C492.702867,376.796008 492.584363,376.511808 492.586585,376.216141 L492.586585,362.110854 C492.584363,361.815187 492.702867,361.530987 492.915584,361.321913 C493.128302,361.112839 493.417454,360.996365 493.718273,360.998549 L535.832672,360.998549 C536.457668,360.998549 536.964328,361.496562 536.964328,362.110854 L536.964328,376.216141 Z M536.964328,339.692346 C536.959763,340.30477 536.455768,340.800134 535.832672,340.80462 L493.718273,340.80462 C493.093276,340.80462 492.586616,340.306638 492.586616,339.692346 L492.586616,325.57882 C492.586616,324.964528 493.093276,324.466545 493.718273,324.466545 L535.832672,324.466545 C536.455768,324.471032 536.959763,324.966396 536.964328,325.57882 L536.964328,339.692346 Z M536.964328,303.160311 C536.964328,303.774604 536.457668,304.272586 535.832672,304.272586 L493.718273,304.272586 C493.107661,304.268174 492.612479,303.785132 492.60335,303.185029 L492.60335,289.09622 C492.601128,288.800553 492.719632,288.516353 492.93235,288.307279 C493.145067,288.098205 493.434219,287.98173 493.735038,287.983914 L535.849437,287.983914 C536.474434,287.983914 536.981094,288.481927 536.981094,289.09622 L536.964328,303.160311 Z M536.964328,266.636516 C536.959763,267.24894 536.455768,267.744304 535.832672,267.74879 L493.718273,267.74879 C493.093276,267.74879 492.586616,267.250808 492.586616,266.636516 L492.586616,252.52299 C492.586616,252.228748 492.706103,251.946677 492.918574,251.739392 C493.131045,251.532106 493.418913,251.416759 493.718273,251.418924 L535.832672,251.418924 C536.454409,251.418924 536.959723,251.911918 536.964328,252.52299 L536.964328,266.636516 Z M536.964328,230.112721 C536.959723,230.723793 536.454409,231.216787 535.832672,231.216787 L493.718273,231.216787 C493.418913,231.218952 493.131045,231.103604 492.918574,230.896319 C492.706103,230.689034 492.586616,230.406962 492.586616,230.112721 L492.586616,215.999194 C492.586616,215.384902 493.093276,214.88692 493.718273,214.88692 L535.832672,214.88692 C536.455768,214.891407 536.959763,215.38677 536.964328,215.999194 L536.964328,230.112721 Z M536.964328,193.580686 C536.964328,193.87568 536.845101,194.158591 536.632874,194.367183 C536.420647,194.575775 536.132806,194.69296 535.832672,194.69296 L493.718273,194.69296 C493.107661,194.688548 492.612479,194.205507 492.60335,193.605403 L492.60335,179.516594 C492.601128,179.220927 492.719632,178.936727 492.93235,178.727653 C493.145067,178.518579 493.434219,178.402105 493.735038,178.404289 L535.849437,178.404289 C536.474434,178.404289 536.981094,178.902302 536.981094,179.516594 L536.964328,193.580686 Z" id="Shape" fill="#F2F2F2" fill-rule="nonzero"></path>
                <path d="M225.891033,37.189011 L212.832948,45.3638576 L220.758667,31.1243382 C218.514402,29.3562488 215.737456,28.3769703 212.866603,28.3412349 L212.65626,28.3412349 C211.748974,28.3546457 210.842292,28.2879178 209.947044,28.1418484 L205.52143,30.9083361 L207.414516,27.50215 C204.275909,26.4216251 201.565595,24.3853962 199.673899,21.6867104 L191.756594,26.6713729 L196.75434,17.6906725 C192.126797,12.1992359 185.883821,8.83458869 179.009816,8.83458869 C170.77279,8.83458869 163.436031,13.6697114 158.69911,21.2048597 C155.847079,25.8114134 150.701689,28.5422366 145.237167,28.3495427 L144.799654,28.3495427 C135.704428,28.3495427 128.334015,38.5348699 128.334015,51.0879118 C128.334015,63.6409537 135.738083,73.8345887 144.833308,73.8345887 C146.831315,73.8243397 148.79715,73.3369315 150.563048,72.4139599 C156.82823,69.4040747 164.116343,69.2643399 170.495137,72.0318024 C175.88612,74.4131026 182.049375,74.4131026 187.440358,72.0318024 C193.76679,69.3227382 200.973278,69.4622032 207.187346,72.4139599 C208.938123,73.3291705 210.885697,73.8163432 212.866603,73.8345887 C221.961828,73.8345887 229.332242,63.6492615 229.332242,51.0879118 C229.386306,46.2430163 228.202783,41.4628164 225.891033,37.189011 Z" id="Path" fill="#F2F2F2" fill-rule="nonzero"></path>
                <path d="M200.819051,70.0509758 C196.062525,69.1655639 191.143956,69.6874214 186.692464,71.5497993 C181.296782,73.9047318 175.131187,73.9047318 169.735506,71.5497993 C163.347521,68.8143203 156.054248,68.9527694 149.779701,71.9286228 C148.010521,72.8482433 146.038422,73.331653 144.034721,73.3368581 C135.947945,73.3368581 129.217389,65.3733287 127.819051,54.8650934 C129.435519,53.7112361 130.808517,52.2626871 131.862438,50.5992111 C136.604996,43.1297993 143.950484,38.3368581 152.19731,38.3368581 C160.444137,38.3368581 167.696964,43.0721523 172.41425,50.4674464 C175.287572,55.0106203 180.386845,57.7485776 185.850091,57.681564 L186.060684,57.681564 C192.530105,57.6403876 198.106611,62.6886228 200.819051,70.0509758 Z" id="Path" fill="#000000" fill-rule="nonzero" opacity="0.03"></path>
                <path d="M682.760719,14.5603492 L676.277873,18.5870022 L680.204339,11.5752134 C679.09201,10.7054484 677.716542,10.223634 676.294581,10.2056593 L676.194331,10.2056593 C675.743838,10.2143308 675.293513,10.181382 674.849307,10.1072483 L672.660511,11.4768023 L673.59618,9.83661781 C672.045252,9.3026587 670.704075,8.3044732 669.761609,6.98269675 L665.843497,9.44297353 L668.349752,5.02267624 C666.254442,2.32064081 663.02734,0.692985694 659.569505,0.594178039 C655.492663,0.594178039 651.858593,2.98064652 649.544484,6.68746353 C648.126464,8.95797353 645.572365,10.3024823 642.861137,10.2056593 L642.643929,10.2056593 C638.141024,10.2056593 634.490245,15.216423 634.490245,21.3999187 C634.490245,27.5834143 638.141024,32.594178 642.643929,32.594178 C643.634268,32.5910251 644.609011,32.3518098 645.484351,31.8970996 C648.585956,30.4175707 652.192707,30.3486178 655.350642,31.7084784 C658.022301,32.8789295 661.074938,32.8789295 663.746597,31.7084784 C666.881348,30.3770765 670.45027,30.4458889 673.529346,31.8970996 C674.395787,32.3418975 675.358588,32.575369 676.336352,32.5777762 C680.839257,32.5777762 684.490245,27.5670125 684.490245,21.3835168 C684.503075,19.0030521 683.908547,16.6572908 682.760719,14.5603492 L682.760719,14.5603492 Z" id="Path" fill="#F2F2F2" fill-rule="nonzero"></path>
                <path d="M671.197255,31.7998837 C668.847841,31.3749185 666.42023,31.6288338 664.22064,32.5296006 C662.908774,33.0910076 661.488811,33.3806129 660.053008,33.3796031 C658.616357,33.3724855 657.196999,33.0775416 655.885377,32.5135628 C652.731767,31.183596 649.130538,31.2510107 646.033096,32.6979968 C645.1601,33.1435201 644.187328,33.3774818 643.199107,33.3796031 C639.206516,33.3796031 635.889081,29.5145067 635.197255,24.4064886 C635.995574,23.8464041 636.674688,23.1440681 637.197718,22.337621 C639.531591,18.7130933 643.15743,16.3796031 647.200033,16.3796031 C651.242635,16.3796031 654.851804,18.6810178 657.202348,22.2734701 C658.627429,24.4908823 661.161079,25.8223535 663.870559,25.7777148 L663.978917,25.7777148 C667.10464,25.7777148 669.855277,28.231488 671.197255,31.7998837 Z" id="Path" fill="#000000" fill-rule="nonzero" opacity="0.03"></path>
                <path d="M521.752792,88.4468901 L514.128561,93.2352718 L518.753369,84.9365167 C517.446917,83.8902361 515.825116,83.3060878 514.145318,83.2767656 L514.019644,83.2767656 C513.489394,83.2841167 512.959519,83.2452392 512.43615,83.160583 L509.855641,84.8203341 L510.961573,82.8203341 C509.130565,82.18851 507.54738,81.0007752 506.437304,79.4261432 L501.812496,82.3307075 L504.736515,77.0692967 C502.246137,73.8822715 498.440078,71.9744468 494.372588,71.874276 C489.563458,71.874276 485.273781,74.7124503 482.50895,79.127388 C480.837298,81.8054992 477.843653,83.3894906 474.666884,83.2767656 L474.407158,83.2767656 C469.095331,83.2767656 464.797276,89.2435706 464.797276,96.5547739 C464.797276,103.865977 469.095331,109.874276 474.407158,109.874276 C475.575839,109.872248 476.726315,109.587359 477.758468,109.0444 C481.416921,107.283693 485.671122,107.201783 489.395892,108.820334 C492.545169,110.208944 496.141359,110.208944 499.290636,108.820334 C502.987153,107.234572 507.196603,107.316327 510.827521,109.0444 C511.861117,109.583626 513.010649,109.868281 514.178831,109.874276 C519.490657,109.874276 523.797276,103.91577 523.797276,96.5547739 C523.810388,93.7253997 523.107542,90.9378453 521.752792,88.4468901 L521.752792,88.4468901 Z" id="Path" fill="#F2F2F2" fill-rule="nonzero"></path>
                <path d="M506.453764,108.67306 C503.650664,108.168854 500.753082,108.468257 498.129546,109.533188 C494.949711,110.878265 491.318627,110.878265 488.138792,109.533188 C484.37788,107.96538 480.0824,108.044722 476.388448,109.75023 C475.345911,110.275253 474.184514,110.551153 473.004619,110.554089 C468.241881,110.554089 464.274342,105.996211 463.453764,99.9833492 C464.402008,99.3322664 465.20914,98.5134418 465.830903,97.5717737 C468.622562,93.2952463 472.953862,90.5540888 477.809656,90.5540888 C482.66545,90.5540888 486.945993,93.263092 489.737651,97.4913878 C491.426609,100.09407 494.42976,101.662843 497.64735,101.623221 L497.740405,101.623221 C501.564132,101.566951 504.854905,104.460841 506.453764,108.67306 Z" id="Path" fill="#000000" fill-rule="nonzero" opacity="0.03"></path>
                <path d="M795.726686,469.687852 C795.726686,471.097688 795.726686,472.507524 795.634882,473.900966 C795.42145,479.324901 794.757134,484.722641 793.648566,490.040311 C788.165333,516.359983 772.333228,536.818999 752.445032,542.859983 C748.489216,544.070112 744.369954,544.687852 740.226686,544.687852 C709.572326,544.687852 684.726686,511.081294 684.726686,469.687852 C684.726686,428.294409 709.572326,394.687852 740.226686,394.687852 C768.97819,394.687852 792.630371,424.245229 795.442927,462.105884 C795.634882,464.597688 795.726686,467.130475 795.726686,469.687852 Z" id="Path" fill="#36334A" fill-rule="nonzero"></path>
                <path d="M795.452757,473.966207 C795.236317,479.426012 794.562641,484.859449 793.438452,490.212286 C787.877956,516.706019 771.822765,537.300338 751.65433,543.381273 C736.039239,536.376234 724.452757,510.121778 724.452757,478.801251 C724.452757,442.117621 740.364069,412.381273 759.999306,412.381273 C776.47767,412.381273 790.340825,433.355134 794.36097,461.812589 C794.919559,465.715278 795.283488,469.791237 795.452757,473.966207 Z" id="Path" fill="#000000" fill-rule="nonzero" opacity="0.1"></path>
                <path d="M516.134537,303.242942 C516.134537,303.242942 666.549393,272.633184 745.935011,300.76107 C745.935011,300.76107 757.633944,306.552105 745.935011,316.479594 C745.935011,316.479594 756.998859,328.061665 737.678907,332.198119 L660.925548,336.872311 L516.134537,322.27063 L516.134537,303.242942 Z" id="Path" fill="#3F3D56" fill-rule="nonzero"></path>
                <path d="M542.0764,306.47939 C542.0764,306.47939 671.363671,280.331053 739.602115,304.358139 C739.602115,304.358139 749.669257,309.310476 739.602115,317.787226 C739.602115,317.787226 749.107175,327.691899 732.50478,331.216312 L666.531443,335.202943 L542.0764,322.747816 L542.0764,306.47939 Z" id="Path" fill="#000000" fill-rule="nonzero" opacity="0.1"></path>
                <path d="M689.326798,352.581578 L679.279179,332.65705 C679.279179,332.65705 683.683386,312.500069 647.88037,306.572522 C645.895965,297.780824 636.903346,291.147616 626.110529,291.147616 C615.577275,291.147616 606.768862,297.45705 604.491402,305.924974 C599.35037,306.364974 593.874417,306.96271 588.013306,307.75139 L579.824497,351.286484 L578.802989,349.260824 C578.802989,349.260824 584.002632,325.451012 537.138862,321.972522 C539.693531,318.902418 541.1013,315.052212 541.124417,311.072144 C541.124417,300.520446 531.185648,291.977805 518.935925,291.977805 C506.686203,291.977805 496.747433,300.520446 496.747433,311.072144 C496.77962,315.406847 498.439348,319.574194 501.40283,322.761201 C497.020952,323.176295 492.399047,323.707616 487.537116,324.355163 L478.326798,373.336295 L521.029179,379.147616 L588.850608,369.185352 L582.847156,357.272144 L621.50537,362.535541 L689.326798,352.581578 Z" id="Path" fill="#536DFE" fill-rule="nonzero"></path>
                <path d="M689.326798,352.581578 L679.279179,332.65705 C679.279179,332.65705 683.683386,312.500069 647.88037,306.572522 C645.895965,297.780824 636.903346,291.147616 626.110529,291.147616 C615.577275,291.147616 606.768862,297.45705 604.491402,305.924974 C599.35037,306.364974 593.874417,306.96271 588.013306,307.75139 L579.824497,351.286484 L578.802989,349.260824 C578.802989,349.260824 584.002632,325.451012 537.138862,321.972522 C539.693531,318.902418 541.1013,315.052212 541.124417,311.072144 C541.124417,300.520446 531.185648,291.977805 518.935925,291.977805 C506.686203,291.977805 496.747433,300.520446 496.747433,311.072144 C496.77962,315.406847 498.439348,319.574194 501.40283,322.761201 C497.020952,323.176295 492.399047,323.707616 487.537116,324.355163 L478.326798,373.336295 L521.029179,379.147616 L588.850608,369.185352 L582.847156,357.272144 L621.50537,362.535541 L689.326798,352.581578 Z" id="Path" fill="#000000" fill-rule="nonzero" opacity="0.2"></path>
                <path d="M545.040253,308.573795 C545.040253,308.573795 538.361899,271.645623 569.249285,270.822802 C600.136671,269.999982 590.119141,324.306118 590.119141,324.306118 C590.119141,324.306118 613.493379,329.24304 615.162967,338.294062 C616.832556,347.345085 534.187928,349.813546 534.187928,349.813546 L545.040253,308.573795 Z" id="Path" fill="#536DFE" fill-rule="nonzero"></path>
                <path d="M489.47512,503.38754 C489.47512,547.0035 456.567166,582.390034 415.97512,582.390034 C375.383075,582.390034 342.47512,547.0035 342.47512,503.38754 C342.47512,459.77158 375.792336,417.390034 416.392734,417.390034 C456.993132,417.390034 489.47512,459.755121 489.47512,503.38754 Z" id="Path" fill="#36334A" fill-rule="nonzero"></path>
                <ellipse id="Oval" fill="#000000" fill-rule="nonzero" opacity="0.1" cx="416.730215" cy="506.920669" rx="58.5" ry="66.5"></ellipse>
                <ellipse id="Oval" fill="#36334A" fill-rule="nonzero" cx="91.9107461" cy="496.078028" rx="73.5" ry="79"></ellipse>
                <path d="M217.524908,307.797949 C217.524908,307.797949 183.944896,309.48246 185.582945,328.012075 C187.220994,346.541691 214.248809,333.065607 214.248809,333.065607 L217.524908,307.797949 Z" id="Path" fill="#36334A" fill-rule="nonzero"></path>
                <path d="M503.73339,337.396679 L517.87719,245.295592 C517.87719,245.295592 521.228801,233.849385 475.982048,233.849385 C475.982048,233.849385 331.02486,224.855937 294.157136,239.572489 C294.157136,239.572489 251.424092,255.106627 191.932992,335.230076 C191.932992,335.230076 497.86807,342.302196 503.73339,337.396679 Z" id="Path" fill="#3F3D56" fill-rule="nonzero"></path>
                <path d="M497.707668,241.037659 L471.75785,342.037659 L455.484803,341.651724 L378.47244,339.812374 L206.707668,335.706683 C206.232617,327.72522 287.57274,245.14335 287.57274,245.14335 L497.707668,241.037659 Z" id="Path" fill="#36334A" fill-rule="nonzero"></path>
                <path d="M380.160811,339.531511 L387.179083,312.981141 C387.179083,312.981141 380.479062,276.195767 411.466662,275.376311 C442.454263,274.556855 432.40423,328.640942 432.40423,328.640942 C432.40423,328.640942 453.76055,333.123366 457.160811,341.367092 L380.160811,339.531511 Z" id="Path" fill="#536DFE" fill-rule="nonzero" opacity="0.2"></path>
                <path d="M795.884252,463.808814 C790.850241,416.00889 759.387672,405.707182 759.387672,405.707182 C729.183606,404.058909 709.047562,516.965626 709.047562,516.965626 L476.644054,537.569041 C476.644054,537.569041 484.614571,441.557125 428.401448,425.898529 C372.188325,410.239934 357.505793,522.734582 354.988787,538.393178 C352.471782,554.051774 16.0320458,536.744905 6.80302564,530.151812 C-2.42599455,523.558719 0.930012789,460.100199 3.4470183,455.155379 C5.9640238,450.21056 12.6760385,427.958871 12.6760385,427.958871 C12.6760385,422.651431 15.2601641,415.942959 17.4080088,411.286587 C18.9182121,407.990041 20.227055,405.707182 20.227055,405.707182 C27.517981,365.09373 65.3737438,355.26178 67.9159193,354.610712 L68.0501596,354.610712 C78.1181817,344.721072 171.247385,338.127979 171.247385,338.127979 L206.485462,331.534886 L492.979419,337.064843 L505.170116,337.303843 L650.820835,330.422302 L749.31965,325.76593 C771.9727,325.76593 783.718725,381.80722 783.718725,381.80722 C804.693771,431.255417 795.884252,463.808814 795.884252,463.808814 Z" id="Path" fill="#3F3D56" fill-rule="nonzero"></path>
                <ellipse id="Oval" fill="#000000" fill-rule="nonzero" opacity="0.1" transform="translate(313.662567, 390.613703) rotate(-21.920000) translate(-313.662567, -390.613703) " cx="313.662567" cy="390.613703" rx="43.0479587" ry="26.5956317"></ellipse>
                <ellipse id="Oval" fill="#F2F2F2" fill-rule="nonzero" transform="translate(311.987015, 387.318244) rotate(-21.920000) translate(-311.987015, -387.318244) " cx="311.987015" cy="387.318244" rx="43.0479587" ry="26.5956317"></ellipse>
                <path d="M70.2633088,356.364858 C69.831249,365.403137 65.6546709,376.807802 58.1402191,387.79342 C46.0510164,405.475581 29.4717805,415.886035 19.2633088,412.83767 C20.7882257,409.551023 22.1098204,407.27502 22.1098204,407.27502 C29.4717805,366.783529 67.6963653,356.981104 70.2633088,356.364858 Z" id="Path" fill="#000000" fill-rule="nonzero" opacity="0.1"></path>
                <path d="M68.3343261,354.296277 C67.9022663,363.334557 63.7256883,374.739222 56.2112364,385.724839 C44.1220338,403.407 27.5427979,413.817455 17.3343261,410.769089 C18.8592431,407.482442 20.1808378,405.206439 20.1808378,405.206439 C27.5427979,364.714948 65.7673826,354.912524 68.3343261,354.296277 Z" id="Path" fill="#F2F2F2" fill-rule="nonzero"></path>
                <polygon id="Path" fill="#36334A" fill-rule="nonzero" points="184.851255 379.229781 119.017921 379.229781 115.684588 370.229781 195.684588 370.229781"></polygon>
                <rect id="Rectangle" fill="#36334A" fill-rule="nonzero" x="60.6362764" y="445.867442" width="109" height="31"></rect>
                <circle id="Oval" fill="#000000" fill-rule="nonzero" opacity="0.1" cx="287.675547" cy="491.90758" r="15"></circle>
                <circle id="Oval" fill="#F2F2F2" fill-rule="nonzero" cx="285.711665" cy="490.83839" r="15"></circle>
                <ellipse id="Oval" fill="#000000" fill-rule="nonzero" opacity="0.1" cx="12.3608241" cy="481.793074" rx="7.5" ry="15.5"></ellipse>
                <ellipse id="Oval" fill="#F2F2F2" fill-rule="nonzero" cx="10.396942" cy="480.723884" rx="7.5" ry="15.5"></ellipse>
                <path d="M675.184485,414.72898 C665.934049,442.791993 665.0931,486.537278 665.0931,486.537278 L661.729305,498.092636 L497.744297,516.251056 C497.744297,516.251056 498.585246,435.363548 501.108092,397.395942 C502.882494,370.612272 496.297865,347.939009 492.252901,336.903641 L504.471887,337.143002 L650.460591,330.251056 C674.848105,347.031088 683.484649,389.530045 675.184485,414.72898 Z" id="Path" fill="#36334A" fill-rule="nonzero"></path>
                <path d="M638.193817,364.650852 C637.007839,364.723315 635.910182,365.252 635.170866,366.106852 C634.431549,366.961705 634.119193,368.063382 634.310634,369.140876 C634.476207,370.046594 635.119789,370.818033 636.028857,371.200447 C638.803786,372.470911 657.27468,369.622232 664.276437,368.485916 C666.408384,368.168562 668.039014,366.570302 668.245531,364.595615 C668.331442,363.475081 667.884705,362.520261 666.097753,362.520261 L638.193817,364.650852 Z" id="Path" fill="#F2F2F2" fill-rule="nonzero"></path>
                <path d="M492.442895,334.04016 C492.442895,334.04016 496.632084,352.118605 516.740192,346.366372 L523.442895,320.8922 L510.037489,313.496473 L492.442895,334.04016 Z" id="Path" fill="#36334A" fill-rule="nonzero"></path>
                <path d="M517.398901,297.147419 C526.596397,291.783239 541.186969,287.093694 555.618676,298.356828 C561.801575,303.16025 563.837116,311.50509 560.543517,318.54655 C555.819348,328.608503 544.606765,339.526091 518.427349,326.452958 C515.857566,325.169662 513.664225,323.260732 512.055993,320.907777 L511.922211,320.710323 C509.362519,316.901182 508.499593,312.226871 509.534268,307.775284 C510.568944,303.323698 513.410972,299.483126 517.398901,297.147419 L517.398901,297.147419 Z" id="Path" fill="#36334A" fill-rule="nonzero"></path>
                <ellipse id="Oval" fill="#F2F2F2" fill-rule="nonzero" cx="417.369508" cy="502.940555" rx="17" ry="16.5"></ellipse>
                <ellipse id="Oval" fill="#F2F2F2" fill-rule="nonzero" cx="763.125427" cy="472.989017" rx="9.5" ry="16.5"></ellipse>
                <rect id="Rectangle" fill="#36334A" fill-rule="nonzero" x="405.644558" y="452.392991" width="22" height="28" rx="11"></rect>
                <path d="M763.041553,421.389713 L763.041553,421.389713 C764.604935,421.389713 766.104284,421.979711 767.209762,423.029915 C768.315239,424.080119 768.93629,425.504501 768.93629,426.989713 L768.93629,439.789713 C768.93629,445.091646 764.41201,449.389713 758.831027,449.389713 L758.831027,449.389713 C755.575454,449.389713 752.93629,446.882507 752.93629,443.789713 L752.93629,430.989713 C752.93629,425.687779 757.46057,421.389713 763.041553,421.389713 L763.041553,421.389713 Z" id="Path" fill="#36334A" fill-rule="nonzero"></path>
                <path d="M762.240232,526.395156 L762.240232,526.395156 C756.721738,526.395156 752.248115,522.097089 752.248115,516.795156 L752.248115,507.995156 C752.248115,502.693222 756.721738,498.395156 762.240232,498.395156 L762.240232,498.395156 C767.735896,498.395156 767.23629,502.715156 767.23629,507.995156 L767.23629,516.795156 C767.227963,522.075156 767.752549,526.395156 762.240232,526.395156 Z" id="Path" fill="#36334A" fill-rule="nonzero"></path>
                <path d="M738.022293,458.668574 L738.022293,458.668574 C743.324226,458.668574 747.622293,462.966641 747.622293,468.268574 L747.622293,480.268574 C747.622293,483.803197 744.756915,486.668574 741.222293,486.668574 L741.222293,486.668574 C735.920359,486.668574 731.622293,482.370508 731.622293,477.068574 L731.622293,465.068574 C731.622293,463.371189 732.296576,461.743324 733.496809,460.543091 C734.697042,459.342858 736.324907,458.668574 738.022293,458.668574 Z" id="Path" fill="#36334A" fill-rule="nonzero"></path>
                <path d="M794.523253,470.342552 C794.523253,471.71855 794.523253,473.094549 794.429863,474.454547 C794.212745,479.748303 793.536957,485.016491 792.409245,490.206532 C791.848166,490.2957 791.280248,490.341187 790.711246,490.342532 C785.084573,490.342532 780.523253,486.04447 780.523253,480.742541 L780.523253,471.94255 C780.523253,466.640622 785.084573,462.342532 790.711246,462.342532 C791.600162,462.34053 792.485352,462.450846 793.343144,462.670559 C793.648784,462.750559 793.954424,462.838559 794.243083,462.942559 C794.429863,465.374556 794.523253,467.846554 794.523253,470.342552 Z" id="Path" fill="#36334A" fill-rule="nonzero"></path>
                <rect id="Rectangle" fill="#36334A" fill-rule="nonzero" x="447.431781" y="487.872958" width="22" height="28" rx="11"></rect>
                <rect id="Rectangle" fill="#36334A" fill-rule="nonzero" x="365.377034" y="488.009371" width="22" height="28" rx="11"></rect>
                <rect id="Rectangle" fill="#36334A" fill-rule="nonzero" x="405.92057" y="530.450174" width="22" height="28" rx="11"></rect>
                <path d="M710.142487,170.4584 C710.137306,172.011305 709.852173,173.551464 709.299875,175.009794 C707.332346,180.316447 702.163057,183.885926 696.330017,183.965695 C690.496977,184.045463 685.22522,180.618769 683.103065,175.368043 C682.467785,173.812499 682.141894,172.155113 682.142487,170.482826 C682.142487,163.018274 688.404842,156.967058 696.129848,156.967058 C703.854854,156.967058 710.117208,163.018274 710.117208,170.482826 L710.142487,170.4584 Z" id="Path" fill="#FF6584" fill-rule="nonzero"></path>
                <path d="M685.067565,173.697073 C683.343629,170.566407 682.92434,166.873776 683.901941,163.431545 C684.879541,159.989315 687.173947,157.079467 690.280398,155.342158 C691.77453,154.489108 693.418869,153.936713 695.122038,153.71567 C690.090523,153.53572 685.383808,156.21433 682.93823,160.649524 C680.492652,165.084718 680.721278,170.527374 683.530051,174.73839 C686.338825,178.949406 691.253333,181.217525 696.251754,180.609646 C691.58208,180.430669 687.34297,177.810616 685.067565,173.697073 L685.067565,173.697073 Z" id="Path" fill="#FF6584" fill-rule="nonzero"></path>
                <rect id="Rectangle" fill="#FF6584" fill-rule="nonzero" x="677.466397" y="189.990167" width="37" height="57"></rect>
                <rect id="Rectangle" fill="#000000" fill-rule="nonzero" opacity="0.1" x="678.535587" y="188.026285" width="37" height="57"></rect>
                <path d="M620.216935,396.200958 C620.216935,396.200958 616.209243,407.172915 606.688861,408.708989 C597.168478,410.245063 591.672697,412.692654 591.672697,412.692654 L614.230762,427.200958 L626.262294,425.698643 C626.262294,425.698643 627.758837,410.185983 632.77268,406.683397 C637.786523,403.180811 620.216935,396.200958 620.216935,396.200958 Z" id="Path" fill="#FBBEBE" fill-rule="nonzero"></path>
                <path d="M781.214225,396.346924 C781.214225,396.346924 785.221848,407.309927 794.742067,408.844748 C804.262285,410.379568 809.77488,412.85046 809.77488,412.85046 L787.217205,427.346924 L775.185881,425.845836 C775.185881,425.845836 773.689364,410.345836 768.675608,406.846108 C763.661852,403.34638 781.214225,396.346924 781.214225,396.346924 Z" id="Path" fill="#FBBEBE" fill-rule="nonzero"></path>
                <path d="M672.711699,301.218674 C672.711699,301.218674 666.74015,304.156845 664.752429,310.024935 C664.752429,310.024935 653.84932,313.45005 647.844223,322.751509 C647.844223,322.751509 640.388173,330.575628 639.390119,334.495942 C638.392066,338.416255 626.960575,361.92988 626.960575,361.92988 C626.960575,361.92988 615.529084,398.62401 609.557535,402.544323 C609.557535,402.544323 628.453462,398.62401 631.93407,417.218674 C631.93407,417.218674 636.412732,417.218674 641.386227,400.093096 C646.359722,382.967517 658.286046,361.92988 658.286046,361.92988 C658.286046,361.92988 662.269875,347.247276 665.750483,344.804302 C669.231091,342.361327 674.699419,331.103839 679.672915,334.033757 C684.64641,336.963675 717.464768,333.546813 717.464768,333.546813 C717.464768,333.546813 736.855529,342.353074 737.350362,348.229417 C737.845196,354.10576 741.334191,354.584451 741.829024,359.478652 C742.323857,364.372854 760.724951,403.031267 760.724951,403.031267 C760.724951,403.031267 764.205559,413.760545 765.195226,416.236532 C765.195226,416.236532 776.14027,390.304693 790.557535,404.979044 C790.557535,404.979044 790.062702,395.190641 785.58404,389.297791 C781.105378,383.404942 761.714618,337.42586 761.714618,337.42586 C761.714618,337.42586 759.726897,330.575628 757.739177,328.619599 C755.751456,326.663569 740.336137,311.007076 734.876195,311.007076 C734.876195,311.007076 731.890421,303.661648 728.409813,302.687759 L672.711699,301.218674 Z" id="Path" fill="#696880" fill-rule="nonzero"></path>
                <path d="M628.247023,422.241353 C620.336123,425.35031 611.338929,424.164562 604.549274,419.118206 C601.306023,416.681691 597.753435,414.667692 593.980565,413.126694 C588.708803,411.039117 582.387724,409.485762 580.465377,412.986974 C576.981649,419.315457 622.773792,434.914756 622.773792,434.914756 C622.773792,434.914756 628.742301,431.495732 628.247023,422.241353 Z" id="Path" fill="#696880" fill-rule="nonzero"></path>
                <path d="M773.432156,421.98122 C781.343056,425.090177 790.34025,423.904429 797.129905,418.858073 C800.373157,416.421558 803.925744,414.407559 807.698614,412.866561 C812.970377,410.778984 819.291455,409.225629 821.213802,412.726841 C824.697531,419.055324 778.905387,434.654623 778.905387,434.654623 C778.905387,434.654623 772.936879,431.235599 773.432156,421.98122 Z" id="Path" fill="#696880" fill-rule="nonzero"></path>
                <path d="M688.649157,222.339455 C688.455085,224.037907 687.889745,225.876523 686.404671,226.783463 C685.189611,227.525505 683.653911,227.459546 682.253217,227.748118 C679.267967,228.471404 676.814147,230.541443 675.646328,233.321679 C674.526166,236.089067 674.308092,239.126977 675.021922,242.020063 C675.348937,243.440121 675.774632,244.836749 676.296048,246.200233 C677.772683,250.256731 679.544645,254.272003 682.27853,257.652418 C684.619019,260.330385 687.250196,262.752094 690.125792,264.874961 C691.906193,266.293086 693.745659,267.744191 695.939517,268.412029 C697.429286,268.797042 698.963438,268.993777 700.50443,268.997418 C702.402961,269.088112 704.419623,269.145826 706.065016,268.222396 C708.596391,266.796026 709.355804,263.638224 710.722746,261.115281 C711.895617,258.963359 713.633827,257.149478 714.722319,254.956331 C715.49305,253.236128 716.05928,251.435209 716.409902,249.588893 L718.747205,239.439405 C719.590996,235.762174 720.367285,231.606737 718.24093,228.448936 C718.09226,228.188276 717.87717,227.969585 717.616524,227.814077 C717.212903,227.654133 716.771361,227.608417 716.342398,227.682159 C713.651672,227.858858 710.967069,227.259679 708.621705,225.958972 C708.250022,225.778603 707.919852,225.526119 707.651345,225.21693 C707.306657,224.69476 707.100742,224.096812 707.052253,223.477253 C706.824137,222.218133 706.462158,220.985713 705.972199,219.800022 C705.832837,219.376659 705.579239,218.997841 705.238101,218.703449 C704.881884,218.483474 704.476692,218.350557 704.056792,218.315938 C700.444723,217.740539 696.802109,217.366166 693.146566,217.194629 C691.939944,217.14516 690.13423,216.6752 689.315752,217.705814 C688.497275,218.736428 688.784164,221.102718 688.649157,222.339455 Z" id="Path" fill="#FBBEBE" fill-rule="nonzero"></path>
                <path d="M688.649157,222.339455 C688.455085,224.037907 687.889745,225.876523 686.404671,226.783463 C685.189611,227.525505 683.653911,227.459546 682.253217,227.748118 C679.267967,228.471404 676.814147,230.541443 675.646328,233.321679 C674.526166,236.089067 674.308092,239.126977 675.021922,242.020063 C675.348937,243.440121 675.774632,244.836749 676.296048,246.200233 C677.772683,250.256731 679.544645,254.272003 682.27853,257.652418 C684.619019,260.330385 687.250196,262.752094 690.125792,264.874961 C691.906193,266.293086 693.745659,267.744191 695.939517,268.412029 C697.429286,268.797042 698.963438,268.993777 700.50443,268.997418 C702.402961,269.088112 704.419623,269.145826 706.065016,268.222396 C708.596391,266.796026 709.355804,263.638224 710.722746,261.115281 C711.895617,258.963359 713.633827,257.149478 714.722319,254.956331 C715.49305,253.236128 716.05928,251.435209 716.409902,249.588893 L718.747205,239.439405 C719.590996,235.762174 720.367285,231.606737 718.24093,228.448936 C718.09226,228.188276 717.87717,227.969585 717.616524,227.814077 C717.212903,227.654133 716.771361,227.608417 716.342398,227.682159 C713.651672,227.858858 710.967069,227.259679 708.621705,225.958972 C708.250022,225.778603 707.919852,225.526119 707.651345,225.21693 C707.306657,224.69476 707.100742,224.096812 707.052253,223.477253 C706.824137,222.218133 706.462158,220.985713 705.972199,219.800022 C705.832837,219.376659 705.579239,218.997841 705.238101,218.703449 C704.881884,218.483474 704.476692,218.350557 704.056792,218.315938 C700.444723,217.740539 696.802109,217.366166 693.146566,217.194629 C691.939944,217.14516 690.13423,216.6752 689.315752,217.705814 C688.497275,218.736428 688.784164,221.102718 688.649157,222.339455 Z" id="Path" fill="#000000" fill-rule="nonzero" opacity="0.1"></path>
                <path d="M681.467405,228.230587 C679.535749,227.660699 677.536548,227.346877 675.521871,227.297294 C670.758782,227.181665 665.670937,228.816991 662.914674,232.674049 C661.04954,235.454776 660.364408,238.852522 661.007773,242.13086 C661.674465,245.385016 663.164517,248.417573 665.337854,250.943452 C666.595068,252.268749 667.711241,253.71902 668.668685,255.271285 C669.984364,257.749052 670.017672,260.705854 670.334101,263.530509 C671.166809,270.228739 674.047978,276.538786 675.197115,283.195721 C676.346251,289.852655 675.347002,297.583288 670.042653,301.828529 C669.151656,302.538823 668.077463,303.282153 668.002519,304.413666 C667.877613,306.222436 670.25083,306.998803 672.07446,307.163988 C677.528697,307.684319 683.124493,308.188132 688.420515,306.792323 C690.618864,306.214177 692.725615,305.313922 694.957272,304.900961 C700.628012,303.852039 706.323733,305.999437 711.986147,307.0401 C716.090408,307.707633 720.242745,308.041865 724.40182,308.039466 C725.372573,308.124893 726.350402,307.998022 727.266335,307.667801 C728.194494,307.306733 728.780458,306.391527 728.715247,305.404773 C728.534168,304.780454 728.196048,304.212038 727.732652,303.752929 C724.868137,300.234499 723.993794,295.576297 723.211048,291.124575 L720.629654,276.134084 C719.222378,268.139156 717.915026,259.458712 721.728828,252.273187 C724.476764,247.111172 729.522974,243.477114 732.420797,238.397691 C733.44541,236.86001 733.909607,235.021269 733.736475,233.186121 C733.303467,230.634021 730.980212,228.808732 728.598668,227.735033 C724.022426,225.705519 718.830187,225.518948 714.117879,227.214702 C714.20115,230.790946 713.285171,234.408486 712.685621,237.951693 L711.678045,243.73315 C711.16719,247.139933 710.415907,250.506956 709.429734,253.809403 C709.063218,255.127763 708.450263,256.366098 707.622758,257.459979 C706.733624,258.440618 705.647191,259.225591 704.433487,259.764303 C701.802583,261.039323 698.909597,261.692361 695.981502,261.672184 C694.714778,261.697679 693.453014,261.507722 692.250971,261.110556 C690.269126,260.400263 688.662,258.93838 687.113164,257.517794 C686.604002,257.088568 686.148338,256.600572 685.75585,256.064171 C685.347731,255.37438 685.036742,254.632421 684.831544,253.858958 C684.157072,251.839492 683.628355,249.774977 683.249399,247.681058 C682.99126,246.078769 682.916316,244.451702 682.799737,242.832894 C682.433346,238.141655 682.441673,232.830974 681.467405,228.230587 Z" id="Path" fill="#F2F2F2" fill-rule="nonzero"></path>
                <path d="M677.430519,321.690829 C677.430519,321.690829 675.502833,347.754489 687.55697,352.184149 C699.611106,356.61381 689.004767,330.541855 689.004767,330.541855 L685.149396,322.669668 L677.430519,321.690829 Z" id="Path" fill="#FBBEBE" fill-rule="nonzero"></path>
                <path d="M718.223784,321.563925 C718.223784,321.563925 720.15147,347.627585 708.097334,352.057246 C696.043197,356.486907 706.649536,330.414952 706.649536,330.414952 L710.504908,322.542764 L718.223784,321.563925 Z" id="Path" fill="#FBBEBE" fill-rule="nonzero"></path>
                <path d="M665.23325,235.827115 L661.20859,242.165582 C661.20859,242.165582 664.73229,264.099471 665.23325,267.996271 C665.664501,270.802618 666.337628,273.569085 667.245579,276.266695 C667.245579,276.266695 667.746539,287.965318 667.746539,292.347163 C667.746539,296.729008 670.293792,304.045785 670.293792,304.045785 C670.646822,308.189625 671.501773,312.278913 672.841044,316.229452 C674.853374,321.597829 676.874194,327.928074 676.874194,327.928074 C676.874194,327.928074 679.421447,321.104563 689.457623,331.33983 C691.792246,329.039988 691.792246,325.352804 689.457623,323.052963 C689.457623,323.052963 686.434883,309.899206 686.434883,303.075695 C686.434883,296.252184 680.898854,263.614426 680.898854,263.614426 C680.898854,263.614426 677.315718,226.561938 665.23325,235.827115 Z" id="Path" fill="#000000" fill-rule="nonzero" opacity="0.1"></path>
                <path d="M664.264886,234.781246 L660.244099,241.110625 C660.244099,241.110625 663.764408,263.04151 664.264886,266.945996 C664.699619,269.754678 665.37491,272.523411 666.283761,275.223508 C666.283761,275.223508 666.809687,286.920528 666.809687,291.318213 C666.809687,295.715898 669.354489,303.015233 669.354489,303.015233 C669.709425,307.158196 670.563501,311.246672 671.89929,315.197231 C673.909684,320.556653 675.920077,326.894251 675.920077,326.894251 C675.920077,326.894251 678.464879,320.071674 688.491397,330.305539 C690.828333,328.007823 690.828333,324.317524 688.491397,322.019808 C688.491397,322.019808 685.471566,308.867853 685.471566,302.037056 C685.471566,295.206259 679.940863,262.581191 679.940863,262.581191 C679.940863,262.581191 676.318762,225.558438 664.264886,234.781246 Z" id="Path" fill="#F2F2F2" fill-rule="nonzero"></path>
                <path d="M730.160594,232.55111 L732.647762,235.433234 C732.647762,235.433234 735.549458,251.917679 729.157437,272.729393 L727.192574,291.614248 C727.192574,291.614248 723.751992,307.58432 723.254559,311.462532 C722.757125,315.340745 722.765416,315.814295 721.78713,317.267604 C721.164885,317.969088 721.164885,319.015519 721.78713,319.717002 L718.835691,330.371881 C718.835691,330.371881 714.408532,325.048524 705.570796,331.82519 C705.570796,331.82519 703.083628,327.946978 705.081653,324.558644 C707.079678,321.170311 707.046515,319.717002 706.557372,318.753572 C706.068229,317.790143 708.522235,312.940336 708.522235,311.976906 C708.522235,311.013476 711.962817,288.740288 711.962817,288.740288 C711.962817,288.740288 713.438537,266.95698 714.914256,259.698598 C715.817927,255.23253 715.793055,245.271647 715.643825,238.26637 C715.486305,230.97533 724.448399,227.015471 729.737776,232.151041 C729.878715,232.257182 730.019655,232.404146 730.160594,232.55111 Z" id="Path" fill="#000000" fill-rule="nonzero" opacity="0.1"></path>
                <path d="M731.232415,230.713446 L733.719836,233.622374 C733.719836,233.622374 736.613536,250.25188 730.229155,271.265378 L728.264093,290.317617 C728.264093,290.317617 724.823161,306.444447 724.325677,310.350485 C723.828193,314.256524 723.836484,314.750959 722.849807,316.209543 C722.238156,316.921491 722.238156,317.969772 722.849807,318.68172 L719.906359,329.394483 C719.906359,329.394483 715.47875,324.02162 706.640115,330.861308 C706.640115,330.861308 704.152694,326.95527 706.150922,323.535426 C708.14915,320.115582 708.115984,318.648757 707.6185,317.668127 C707.121016,316.687497 709.591854,311.809069 709.591854,310.82844 C709.591854,309.84781 713.032786,287.375727 713.032786,287.375727 C713.032786,287.375727 714.508656,265.389839 715.976234,258.063957 C717.443812,250.738074 716.473718,228.752187 716.473718,228.752187 C716.473718,228.752187 724.367134,223.395805 731.232415,230.713446 Z" id="Path" fill="#F2F2F2" fill-rule="nonzero"></path>
                <circle id="Oval" fill="#FBBEBE" fill-rule="nonzero" cx="698.453772" cy="204.568494" r="19.5"></circle>
                <path d="M708.845841,175.03596 C706.893094,180.324044 701.76264,183.881032 695.973422,183.960521 C690.184204,184.040011 684.952053,180.625307 682.845841,175.392956 C690.581447,172.37472 698.501036,175.068415 698.501036,175.068415 C702.43156,173.713454 705.877041,173.84327 708.845841,175.03596 Z" id="Path" fill="#000000" fill-rule="nonzero" opacity="0.1"></path>
                <path d="M697.607972,176.10468 C697.607972,176.10468 659.016368,162.925968 668.535349,226.89214 C668.535349,226.89214 677.056781,232.262465 683.574662,228.844237 C683.574662,228.844237 679.060332,184.366085 696.60197,186.359365 C714.143608,188.352645 711.142509,227.86407 711.142509,227.86407 C711.142509,227.86407 721.168717,230.796333 724.169817,225.393062 C727.170917,219.98979 723.172268,167.30789 697.607972,176.10468 Z" id="Path" fill="#FF6584" fill-rule="nonzero"></path>
                <path d="M697.447316,184.11432 C685.524837,182.793478 683.892194,202.962654 684.051272,215.757805 C684.201977,203.043688 686.412325,185.775501 697.447316,186.999103 C709.855401,188.368565 711.881553,208.594466 712.032258,220.052568 C712.166218,209.542555 710.97732,185.613435 697.447316,184.11432 Z" id="Path" fill="#000000" fill-rule="nonzero" opacity="0.1"></path>
                <path d="M669.928264,223.304519 C669.086352,217.676631 668.602812,212.000015 668.480624,206.309627 C668.440104,212.971776 668.924175,219.626636 669.928264,226.211323 C669.928264,226.211323 678.172453,231.595516 684.478276,228.16846 C684.478276,228.16846 684.371952,227.111441 684.257449,225.335978 C677.984341,228.606132 669.928264,223.304519 669.928264,223.304519 Z" id="Path" fill="#000000" fill-rule="nonzero" opacity="0.1"></path>
                <path d="M725.476764,222.008008 C722.656631,226.718627 713.702069,224.654336 712.483704,224.336156 C712.424063,226.043464 712.347383,227.060089 712.347383,227.060089 C712.347383,227.060089 722.45215,229.822825 725.476764,224.731941 C726.107247,223.684275 726.431009,220.743048 726.328768,216.808478 C726.243568,219.377201 725.945366,221.224198 725.476764,222.008008 Z" id="Path" fill="#000000" fill-rule="nonzero" opacity="0.1"></path>
                <path d="M825.801675,537.869581 C828.079429,533.693379 825.494095,528.569913 822.526365,524.84675 C819.558634,521.123588 815.934179,517.243921 816.008996,512.491123 C816.125378,505.670817 823.432479,501.642882 829.309749,498.026802 C833.644513,495.340558 837.643158,492.15536 841.222235,488.53768 C842.717201,487.143776 843.955029,485.501901 844.879942,483.686038 C846.085323,481.017222 846.052071,477.977738 845.977254,475.053573 C845.727865,465.317338 845.242942,455.589341 844.522485,445.869581" id="Path" stroke="#3F3D56" stroke-width="4"></path>
                <path d="M857.592783,445.878528 C857.421434,442.132698 855.350944,438.73314 852.101406,436.862184 L849.640929,441.732202 L849.717552,435.831988 C848.540738,435.488601 847.315302,435.34189 846.09069,435.397773 C840.023186,435.681624 835.334227,440.829925 835.616838,446.897668 C835.899449,452.965411 841.046643,457.655556 847.114261,457.374169 C853.18188,457.092781 857.872929,451.946386 857.592783,445.878528 L857.592783,445.878528 Z" id="Path" fill="#536DFE" fill-rule="nonzero"></path>
                <path d="M837.059136,517.787411 C834.778374,522.214737 829.809294,524.557827 824.943768,523.500216 C820.078242,522.442606 816.529388,518.24799 816.291126,513.273107 C816.212753,511.748819 816.45647,510.225124 817.006384,508.801392 C818.652957,504.531888 822.767403,501.725781 827.342128,501.75209 C831.916853,501.778771 835.998539,504.632348 837.595579,508.920638 L830.723999,514.51667 L838.276795,512.762054 C838.279968,514.510649 837.862324,516.23432 837.059136,517.787411 L837.059136,517.787411 Z" id="Path" fill="#536DFE" fill-rule="nonzero"></path>
                <path d="M831.714339,497.860602 C828.794737,497.996943 825.940534,496.969476 823.780085,495.0044 C821.619636,493.039324 820.33006,490.29774 820.195257,487.383209 C820.111227,485.662988 820.438564,483.947505 821.150207,482.378573 C822.492121,479.407107 825.078249,477.177434 828.218541,476.284492 L828.167383,480.821007 L830.657073,475.884461 L830.657073,475.884461 C836.733771,475.60539 841.886851,480.29594 842.167629,486.361855 C842.234069,487.630822 842.075311,488.901525 841.698681,490.115332 C840.334047,494.536591 836.343238,497.632428 831.714339,497.860602 Z" id="Path" fill="#536DFE" fill-rule="nonzero"></path>
                <path d="M859.344697,479.814463 C856.42958,479.950801 853.579762,478.923353 851.422632,476.958313 C849.265502,474.993273 847.977907,472.251738 847.843311,469.33726 C847.750805,467.541652 848.107786,465.751336 848.881926,464.128448 C850.182977,461.369682 852.572466,459.275692 855.478576,458.347581 C858.384687,457.41947 861.545913,457.740754 864.205756,459.234547 L862.264738,464.554005 L866.257447,460.715484 C868.400688,462.676436 869.680114,465.406019 869.815981,468.307413 C869.866059,469.3256 869.771472,470.345741 869.535044,471.337376 C868.414419,476.122023 864.254501,479.582552 859.344697,479.814463 L859.344697,479.814463 Z" id="Path" fill="#536DFE" fill-rule="nonzero"></path>
                <path d="M855.300563,448.76574 C852.835327,449.046708 850.460482,449.830012 848.003464,449.991782 C845.546445,450.153551 842.842902,449.54053 841.289804,447.556727 C840.566648,446.406551 839.91081,445.212416 839.325832,443.980772 C838.654497,442.897007 837.737669,441.999684 836.65516,441.366919 C835.816683,443.062187 835.422793,444.955949 835.512933,446.858564 C835.751946,452.385537 839.915634,456.868628 845.236867,457.328436 C850.5581,457.788244 855.380991,454.081683 856.500311,448.672084 C856.097656,448.689112 855.695001,448.723169 855.300563,448.76574 Z" id="Path" fill="#000000" fill-rule="nonzero" opacity="0.1"></path>
                <path d="M857.848884,479.760516 C855.028589,479.890792 852.271468,478.909031 850.184505,477.03137 C848.097541,475.153708 846.851829,472.534081 846.721611,469.7492 C846.632114,468.033437 846.977483,466.32273 847.726442,464.772007 C848.571568,465.334012 849.298718,466.052011 849.867886,466.886501 C850.625628,468.016942 851.078626,469.326301 851.976385,470.35915 C853.62365,472.27846 856.465181,472.912809 859.034914,472.798951 C861.604647,472.685094 864.075544,471.985684 866.63704,471.733572 C866.991202,471.733572 867.353601,471.676643 867.707763,471.66851 C866.620427,476.237186 862.59658,479.539893 857.848884,479.760516 L857.848884,479.760516 Z" id="Path" fill="#000000" fill-rule="nonzero" opacity="0.1"></path>
                <path d="M832.345595,496.876912 C829.497183,497.008905 826.712575,496.014201 824.604806,494.111785 C822.497037,492.209369 821.238905,489.555205 821.107389,486.733609 C821.025408,485.06824 821.344763,483.407458 822.039054,481.888554 C822.911115,482.470443 823.671639,483.201465 824.285031,484.047405 C825.116875,485.217469 825.640936,486.519372 826.614193,487.639997 C828.427612,489.64229 831.480478,490.34268 834.225561,490.285001 C836.970645,490.227322 839.449538,489.576371 842.094801,489.378613 C840.762402,493.661623 836.864736,496.659392 832.345595,496.876912 Z" id="Path" fill="#000000" fill-rule="nonzero" opacity="0.1"></path>
                <path d="M838.154342,517.783059 C835.849693,522.224985 830.82857,524.575801 825.912086,523.514704 C820.995602,522.453606 817.409581,518.245157 817.168824,513.253869 C817.089629,511.724555 817.335899,510.195835 817.891572,508.767408 C818.805369,509.365877 819.625772,510.094324 820.326546,510.929455 C821.384856,512.211301 822.047376,513.66406 823.303582,514.851904 C825.575077,517.073771 829.249048,517.988155 832.510021,518.073611 C834.39552,518.084604 836.280089,517.987592 838.154342,517.783059 L838.154342,517.783059 Z" id="Path" fill="#000000" fill-rule="nonzero" opacity="0.1"></path>
                <path d="M810.439511,533.292459 C810.439511,533.292459 818.764733,533.035065 821.28109,531.2167 C823.797448,529.398335 834.091637,527.231242 834.720726,530.145608 C835.349816,533.059974 847.237153,544.642713 837.833493,544.71744 C828.429833,544.792167 815.978766,543.231196 813.470578,541.678528 C810.962391,540.12586 810.439511,533.292459 810.439511,533.292459 Z" id="Path" fill="#656380" fill-rule="nonzero"></path>
                <path d="M837.910747,543.748935 C828.506711,543.820867 816.055145,542.310307 813.546857,540.823724 C811.643173,539.680814 810.883333,535.604699 810.630054,533.718497 L810.352263,533.718497 C810.352263,533.718497 810.875163,540.296227 813.383451,541.790802 C815.891739,543.285377 828.343304,544.787945 837.747341,544.716013 C840.459887,544.716013 841.399473,543.748935 841.350451,542.318299 C840.974617,543.205453 839.920646,543.732951 837.910747,543.748935 Z" id="Path" fill="#000000" fill-rule="nonzero" opacity="0.2"></path>
            </g>
        </g>
    </g>
</svg>