<?xml version="1.0" standalone="no"?>
<svg viewBox="0 0 200 200" xmlns="http://www.w3.org/2000/svg">
  <path fill="#BAE6FF" d="M33.6,-54.2C46.3,-50.9,61.1,-47.4,72.3,-38.3C83.4,-29.2,91,-14.6,84.1,-4C77.2,6.7,55.9,13.3,45.3,23.4C34.7,33.5,34.9,47.1,29.1,59C23.4,70.9,11.7,81.1,1.1,79.2C-9.6,77.4,-19.1,63.5,-24.7,51.5C-30.2,39.5,-31.8,29.4,-37.3,21.1C-42.8,12.8,-52.2,6.4,-57.6,-3.2C-63.1,-12.7,-64.6,-25.4,-58,-31.8C-51.5,-38.2,-36.8,-38.3,-25.8,-42.5C-14.8,-46.7,-7.4,-55.1,1.5,-57.7C10.5,-60.4,21,-57.4,33.6,-54.2Z" transform="translate(100 100)" />
</svg>
