<?xml version="1.0" standalone="no"?>
<svg viewBox="0 0 200 200" xmlns="http://www.w3.org/2000/svg">
  <path fill="#FB8C00" d="M37.5,-66.9C49.3,-58.2,60,-49.5,63.6,-38.3C67.2,-27.2,63.7,-13.6,66.3,1.5C68.9,16.6,77.6,33.2,71.8,40.5C66,47.9,45.7,46,31.3,53.1C16.9,60.3,8.5,76.6,-2.6,81.1C-13.7,85.6,-27.3,78.3,-36.1,67.9C-45,57.5,-49,44.1,-56.8,32.2C-64.7,20.4,-76.4,10.2,-77.9,-0.9C-79.5,-12,-70.8,-24,-63.2,-36.1C-55.6,-48.3,-48.9,-60.7,-38.5,-70.2C-28.1,-79.7,-14.1,-86.2,-0.6,-85.2C12.9,-84.1,25.8,-75.5,37.5,-66.9Z" transform="translate(100 100)" />
</svg>
