<?xml version="1.0" standalone="no"?>
<svg viewBox="0 0 200 200" xmlns="http://www.w3.org/2000/svg">
  <path fill="#F2F4F8" d="M36.7,-49.7C45.8,-43.9,50.2,-30.8,53.7,-18C57.2,-5.1,59.6,7.5,56.2,18.2C52.7,28.9,43.2,37.7,32.9,45.8C22.5,54,11.3,61.5,-4.1,67.1C-19.5,72.8,-38.9,76.5,-48.4,68.1C-57.8,59.7,-57.3,39.1,-60.5,21.5C-63.8,3.9,-70.8,-10.7,-66.4,-20.7C-62,-30.8,-46.2,-36.2,-33.2,-40.8C-20.2,-45.3,-10.1,-48.9,1.8,-51.4C13.8,-53.9,27.6,-55.4,36.7,-49.7Z" transform="translate(100 100)" />
</svg>
